<?xml version="1.0" encoding="UTF-8"?><svg id="Layer_3" xmlns="http://www.w3.org/2000/svg" viewBox="0 0 820 955.82"><defs><style>.cls-1{fill:none;stroke:#000;stroke-miterlimit:10;stroke-width:5px;}</style></defs><path d="M583.24,40c29.58,0,53.56,23.98,53.56,53.56h2.73c2.77,0,5.02,2.25,5.02,5.02v736.08c0,1.74-1.41,3.16-3.16,3.16h-1.14v12.87c0,2.76-2.23,4.99-4.99,4.99h-1.28v10.76c0,5.48-4.44,9.92-9.92,9.92h-26.5v18.57c0,11.54-9.36,20.9-20.9,20.9H239.75c-11.54,0-20.9-9.36-20.9-20.9v-18.57h-22.74c-5.48,0-9.92-4.44-9.92-9.92v-10.76h-1.28c-2.76,0-4.99-2.23-4.99-4.99v-12.87h-1.14c-1.74,0-3.16-1.41-3.16-3.16V98.59c0-2.77,2.25-5.02,5.02-5.02h2.73c0-29.58,23.98-53.56,53.56-53.56h346.3M583.24,0H236.94c-43.15,0-79.57,29.36-90.33,69.15-6.84,7.9-10.98,18.19-10.98,29.43v736.08c0,6.8,1.58,13.24,4.4,18.97.5,7.7,2.95,14.88,6.85,21.05,3.16,18.94,17.03,34.3,35.15,39.64,8.12,24.09,30.93,41.49,57.73,41.49h336.92c26.42,0,48.96-16.91,57.37-40.47,20.11-4.09,35.86-20.31,39.26-40.66,3.91-6.17,6.35-13.35,6.85-21.05,2.82-5.73,4.4-12.17,4.4-18.97V98.59c0-11.24-4.14-21.53-10.98-29.43C662.81,29.36,626.39,0,583.24,0h0Z"/><line class="cls-1" x1="183.38" y1="90.87" x2="636.8" y2="90.87"/><line class="cls-1" x1="179.93" y1="840.53" x2="640.25" y2="840.53"/><line class="cls-1" x1="186.2" y1="858.39" x2="633.98" y2="858.39"/><line class="cls-1" x1="218.85" y1="879.06" x2="597.56" y2="879.06"/><path d="M410.09,169.9c22.24,0,40.26,18.03,40.26,40.26s-18.03,40.26-40.26,40.26-40.26-18.03-40.26-40.26,18.03-40.26,40.26-40.26M410.09,159.9c-27.72,0-50.26,22.55-50.26,50.26s22.55,50.26,50.26,50.26,50.26-22.55,50.26-50.26-22.55-50.26-50.26-50.26h0Z"/><polygon points="422.62 215.17 388.75 187.27 419.28 218.79 422.62 215.17"/></svg>