<?xml version="1.0" encoding="UTF-8"?><svg id="Layer_1" xmlns="http://www.w3.org/2000/svg" viewBox="0 0 955.73 737.84"><defs><style>.cls-1{stroke-width:10px;}.cls-1,.cls-2{fill:none;stroke:#000;stroke-miterlimit:10;}.cls-1,.cls-2,.cls-3{fill-rule:evenodd;}.cls-2{stroke-width:20px;}</style></defs><path d="M93.48,40c.5,0,.99,0,1.49.01,57.91,1.02,743.41,20.43,783.59,21.95,21.98.83,37.92,25.28,37.15,50.66-1.19,39.43-1.69,73.46-1.69,73.46l-7.24,14.35.84,11.82,5.55,15.2s-2.42,350.61-2.53,385.04c-.12,34.42-13.92,55.36-43.06,56.57-29.15,1.21-569.26,23.04-718.57,28.71-.94.04-1.93.05-2.97.05-14.35,0-37.55-3.28-62.05-5.96-23.8-2.6-43.39-13.96-43.91-38.84-.51-24.89,1.42-538.93,1.69-566.58.27-27.24,18.95-46.45,51.71-46.45M93.48,0h0c-26.07,0-48.66,8.22-65.32,23.77C11.38,39.41,2.01,61.53,1.77,86.06,1.47,116.41-.43,628.55.09,653.86c.49,23.52,10.58,44.23,28.41,58.33,13.5,10.67,30.7,17.21,51.14,19.45,6,.66,12,1.36,17.79,2.04,19.06,2.23,35.53,4.16,48.61,4.16,1.55,0,3.06-.03,4.49-.08,146.06-5.55,685.83-27.35,718.71-28.71,12.8-.53,24.61-3.44,35.1-8.63,11.11-5.5,20.51-13.41,27.91-23.51,12.12-16.52,18.3-38.14,18.39-64.27.11-33.96,2.51-381.39,2.53-384.9l.05-7.22-2.48-6.78-2.47-6.76,1.45-2.88,4.15-8.22.14-9.21c0-.34.51-34.2,1.67-72.84.64-21.19-5.53-42.08-17.37-58.83-14.22-20.11-35.45-32.15-58.26-33.01C839.22,20.45,155.52,1.07,95.67.02c-.74-.01-1.46-.02-2.19-.02h0Z"/><path class="cls-2" d="M143.1,28.58s-36.6,5.59-37.15,51.51c-.55,45.91.84,95.03.84,95.03l-7.64,15.2v15.2l6.8,16.89s-2.53,416.17-2.53,439.18c0,44.68,35.46,48.97,35.46,48.97"/><path class="cls-1" d="M166.62,231.49l-.6,43.55c-.07,4.78,3.79,8.68,8.56,8.68h103.5c4.73,0,8.56-3.83,8.56-8.56v-42.1c0-4.68-3.76-8.5-8.44-8.56l-102.89-1.45c-4.73-.07-8.62,3.71-8.68,8.44Z"/><path class="cls-1" d="M615.95,235.78v40.22c0,4.73,3.83,8.56,8.56,8.56h89.39c4.68,0,8.49-3.76,8.56-8.44l.59-39.51c.07-4.75-3.74-8.65-8.5-8.69l-89.98-.71c-4.76-.04-8.63,3.81-8.63,8.56Z"/><path class="cls-1" d="M756.25,236.76l.59,39.37c.07,4.68,3.88,8.44,8.56,8.44h86.86c4.73,0,8.56-3.83,8.56-8.56v-38.67c0-4.7-3.79-8.53-8.5-8.56l-87.44-.71c-4.81-.04-8.7,3.89-8.63,8.69Z"/><path class="cls-3" d="M101.72,204.67l809.76,7.6-.84-12.67-808.92-10.13v15.2Z"/></svg>