<?xml version="1.0" encoding="UTF-8"?><svg id="Layer_1" xmlns="http://www.w3.org/2000/svg" viewBox="0 0 896.67 958.51"><defs><style>.cls-1,.cls-2,.cls-3,.cls-4{fill-rule:evenodd;}.cls-1,.cls-2,.cls-4{fill:none;stroke:#000;stroke-miterlimit:10;}.cls-1,.cls-4{stroke-width:10px;}.cls-2{stroke-width:20px;}.cls-4{stroke-linecap:round;}</style></defs><path d="M187.7,40c.56,0,1.08.01,1.56.04,54.27,3.36,488.29,29.12,596.1,36.13,44.48,2.89,71.3,44.12,71.3,88.42v664.55c0,41.95-24.21,89.37-80.81,89.37s-543.4-3.75-630.33-3.8c-69.46-.04-105.53-33.26-105.53-93.17V141.77c0-52.74,33.16-81.74,64.65-87.47,30.26-5.5,69.16-14.3,83.05-14.3M187.71,0h-.03c-13.06,0-32.38,3.68-62.84,9.69-9.24,1.82-18.79,3.71-27.35,5.26-26.06,4.74-50.07,18.85-67.61,39.74C10.33,77.97,0,108.08,0,141.77v679.76c0,52.15,21.8,82.56,40.08,98.88,25.46,22.73,60.94,34.27,105.43,34.29,47.06.03,214.39,1.16,362.02,2.16,124.61.84,242.32,1.64,268.33,1.64,19.74,0,38.03-4.13,54.36-12.27,15.25-7.6,28.37-18.48,39-32.32,17.7-23.06,27.45-53.16,27.45-84.78V164.59c0-31.02-9.62-60.8-27.08-83.87-20.1-26.55-49.09-42.34-81.63-44.46-74.21-4.82-303.77-18.58-455.67-27.68C263.21,4.44,208.66,1.17,191.74.12c-1.3-.08-2.65-.12-4.02-.12h0Z"/><path class="cls-2" d="M197.82,925.04c-50.44,0-78.91-48.7-78.91-93.17V120.03c0-50.55,33.12-93.94,80.81-90.32"/><path class="cls-4" d="M611.38,750.23l57.04.95"/><path class="cls-4" d="M638.95,716.96v69.4"/><path class="cls-4" d="M369.9,745.48l-57.99-.95"/><path class="cls-1" d="M488.26,714.1c15.49,0,28.05,15.11,28.05,33.75s-12.56,33.75-28.05,33.75-28.05-15.11-28.05-33.75,12.56-33.75,28.05-33.75Z"/><path class="cls-2" d="M251.06,178.85l472.51,25.67v404.06l-471.56-11.41-.95-418.32Z"/><path class="cls-3" d="M472.86,522.29s-72-26.7-75.5-111.27c-3.84-92.78,131.13-158.95,131.13-158.95,0,0-18.23,31.22-7.95,91.4,5.53,32.36,31.48,39.37,27.82,0,38.31,47.53,72.94,123.79-35.76,182.79,0,0,9.33-34.66,3.97-75.5-5.75-43.81-45.76-44.71-51.66-3.97-5.9,40.74,7.95,75.5,7.95,75.5Z"/></svg>